HIERARCHY
ROOT mixamorig:Hips
{
	OFFSET -0.000008 104.274872 1.554316
	CHANNELS 6 Xposition Yposition Zposition Xrotation Yrotation Zrotation
	JOINT mixamorig:Spine
	{
		OFFSET -0.000005 10.181595 0.131519
		CHANNELS 6 Xposition Yposition Zposition Xrotation Yrotation Zrotation
		JOINT mixamorig:Spine1
		{
			OFFSET -0.000000 9.893959 -1.470707
			CHANNELS 6 Xposition Yposition Zposition Xrotation Yrotation Zrotation
			JOINT mixamorig:Spine2
			{
				OFFSET -0.000000 9.220757 -1.370641
				CHANNELS 6 Xposition Yposition Zposition Xrotation Yrotation Zrotation
				JOINT mixamorig:Neck
				{
					OFFSET 0.000001 16.740417 -2.049036
					CHANNELS 6 Xposition Yposition Zposition Xrotation Yrotation Zrotation
					JOINT mixamorig:Head
					{
						OFFSET 0.000000 9.617874 1.685006
						CHANNELS 6 Xposition Yposition Zposition Xrotation Yrotation Zrotation
						JOINT mixamorig:HeadTop_End
						{
							OFFSET 0.000002 22.037354 7.501101
							CHANNELS 6 Xposition Yposition Zposition Xrotation Yrotation Zrotation
							End Site
							{
								OFFSET 0.000168 2310.654297 -282.823242
							}
						}
					}
				}
				JOINT mixamorig:RightShoulder
				{
					OFFSET -4.569970 11.014908 -2.160885
					CHANNELS 6 Xposition Yposition Zposition Xrotation Yrotation Zrotation
					JOINT mixamorig:RightArm
					{
						OFFSET -10.592851 -0.524811 -2.232101
						CHANNELS 6 Xposition Yposition Zposition Xrotation Yrotation Zrotation
						JOINT mixamorig:RightForeArm
						{
							OFFSET -27.841511 0.000031 -0.000004
							CHANNELS 6 Xposition Yposition Zposition Xrotation Yrotation Zrotation
							JOINT mixamorig:RightHand
							{
								OFFSET -28.328831 -0.000015 0.000015
								CHANNELS 6 Xposition Yposition Zposition Xrotation Yrotation Zrotation
								JOINT mixamorig:RightHandThumb1
								{
									OFFSET -2.464806 -1.573990 2.681852
									CHANNELS 6 Xposition Yposition Zposition Xrotation Yrotation Zrotation
									JOINT mixamorig:RightHandThumb2
									{
										OFFSET -3.215179 -1.872803 1.924282
										CHANNELS 6 Xposition Yposition Zposition Xrotation Yrotation Zrotation
										JOINT mixamorig:RightHandThumb3
										{
											OFFSET -2.654831 -1.527969 1.512609
											CHANNELS 6 Xposition Yposition Zposition Xrotation Yrotation Zrotation
											JOINT mixamorig:RightHandThumb4
											{
												OFFSET -2.018814 -1.152008 1.108052
												CHANNELS 6 Xposition Yposition Zposition Xrotation Yrotation Zrotation
												End Site
												{
													OFFSET -188.809540 -114.533607 132.431396
												}
											}
										}
									}
								}
								JOINT mixamorig:RightHandIndex1
								{
									OFFSET -9.108284 -0.517868 2.259835
									CHANNELS 6 Xposition Yposition Zposition Xrotation Yrotation Zrotation
									JOINT mixamorig:RightHandIndex2
									{
										OFFSET -3.699989 0.000000 0.001215
										CHANNELS 6 Xposition Yposition Zposition Xrotation Yrotation Zrotation
										JOINT mixamorig:RightHandIndex3
										{
											OFFSET -2.850006 0.000031 -0.000522
											CHANNELS 6 Xposition Yposition Zposition Xrotation Yrotation Zrotation
											JOINT mixamorig:RightHandIndex4
											{
												OFFSET -2.772186 -0.000015 -0.000020
												CHANNELS 6 Xposition Yposition Zposition Xrotation Yrotation Zrotation
												End Site
												{
													OFFSET -277.218445 0.000000 -0.050231
												}
											}
										}
									}
								}
								JOINT mixamorig:RightHandMiddle1
								{
									OFFSET -9.532516 -0.000031 -0.000023
									CHANNELS 6 Xposition Yposition Zposition Xrotation Yrotation Zrotation
									JOINT mixamorig:RightHandMiddle2
									{
										OFFSET -3.700005 -0.000015 0.003713
										CHANNELS 6 Xposition Yposition Zposition Xrotation Yrotation Zrotation
										JOINT mixamorig:RightHandMiddle3
										{
											OFFSET -2.949974 0.000015 -0.002054
											CHANNELS 6 Xposition Yposition Zposition Xrotation Yrotation Zrotation
											JOINT mixamorig:RightHandMiddle4
											{
												OFFSET -2.946640 0.000000 -0.000156
												CHANNELS 6 Xposition Yposition Zposition Xrotation Yrotation Zrotation
												End Site
												{
													OFFSET -294.664337 0.000000 -0.113670
												}
											}
										}
									}
								}
								JOINT mixamorig:RightHandRing1
								{
									OFFSET -9.103600 -0.043076 -1.865134
									CHANNELS 6 Xposition Yposition Zposition Xrotation Yrotation Zrotation
									JOINT mixamorig:RightHandRing2
									{
										OFFSET -3.379288 0.000000 -0.001055
										CHANNELS 6 Xposition Yposition Zposition Xrotation Yrotation Zrotation
										JOINT mixamorig:RightHandRing3
										{
											OFFSET -2.889687 -0.000015 0.000379
											CHANNELS 6 Xposition Yposition Zposition Xrotation Yrotation Zrotation
											JOINT mixamorig:RightHandRing4
											{
												OFFSET -2.638809 -0.000015 0.000941
												CHANNELS 6 Xposition Yposition Zposition Xrotation Yrotation Zrotation
												End Site
												{
													OFFSET -263.880371 0.000000 0.516020
												}
											}
										}
									}
								}
								JOINT mixamorig:RightHandPinky1
								{
									OFFSET -8.076683 -0.486710 -3.806280
									CHANNELS 6 Xposition Yposition Zposition Xrotation Yrotation Zrotation
									JOINT mixamorig:RightHandPinky2
									{
										OFFSET -3.600014 -0.000015 -0.003747
										CHANNELS 6 Xposition Yposition Zposition Xrotation Yrotation Zrotation
										JOINT mixamorig:RightHandPinky3
										{
											OFFSET -2.099983 0.000000 -0.005739
											CHANNELS 6 Xposition Yposition Zposition Xrotation Yrotation Zrotation
											JOINT mixamorig:RightHandPinky4
											{
												OFFSET -2.115768 -0.000031 -0.003680
												CHANNELS 6 Xposition Yposition Zposition Xrotation Yrotation Zrotation
												End Site
												{
													OFFSET -211.577087 0.000000 -0.350686
												}
											}
										}
									}
								}
							}
						}
					}
				}
				JOINT mixamorig:LeftShoulder
				{
					OFFSET 4.570447 11.014725 -2.160855
					CHANNELS 6 Xposition Yposition Zposition Xrotation Yrotation Zrotation
					JOINT mixamorig:LeftArm
					{
						OFFSET 10.592371 -0.524597 -2.232119
						CHANNELS 6 Xposition Yposition Zposition Xrotation Yrotation Zrotation
						JOINT mixamorig:LeftForeArm
						{
							OFFSET 27.841532 -0.000031 0.000026
							CHANNELS 6 Xposition Yposition Zposition Xrotation Yrotation Zrotation
							JOINT mixamorig:LeftHand
							{
								OFFSET 28.328846 -0.000061 0.000022
								CHANNELS 6 Xposition Yposition Zposition Xrotation Yrotation Zrotation
								JOINT mixamorig:LeftHandThumb1
								{
									OFFSET 2.466141 -1.576172 2.681732
									CHANNELS 6 Xposition Yposition Zposition Xrotation Yrotation Zrotation
									JOINT mixamorig:LeftHandThumb2
									{
										OFFSET 3.217812 -1.872070 1.916482
										CHANNELS 6 Xposition Yposition Zposition Xrotation Yrotation Zrotation
										JOINT mixamorig:LeftHandThumb3
										{
											OFFSET 2.656029 -1.528778 1.514513
											CHANNELS 6 Xposition Yposition Zposition Xrotation Yrotation Zrotation
											JOINT mixamorig:LeftHandThumb4
											{
												OFFSET 2.020889 -1.154053 1.115139
												CHANNELS 6 Xposition Yposition Zposition Xrotation Yrotation Zrotation
												End Site
												{
													OFFSET 190.885437 -115.081749 130.048782
												}
											}
										}
									}
								}
								JOINT mixamorig:LeftHandIndex1
								{
									OFFSET 9.109314 -0.518021 2.259871
									CHANNELS 6 Xposition Yposition Zposition Xrotation Yrotation Zrotation
									JOINT mixamorig:LeftHandIndex2
									{
										OFFSET 3.699989 0.000000 -0.000322
										CHANNELS 6 Xposition Yposition Zposition Xrotation Yrotation Zrotation
										JOINT mixamorig:LeftHandIndex3
										{
											OFFSET 2.850006 0.000000 0.000352
											CHANNELS 6 Xposition Yposition Zposition Xrotation Yrotation Zrotation
											JOINT mixamorig:LeftHandIndex4
											{
												OFFSET 2.774864 -0.000031 -0.000027
												CHANNELS 6 Xposition Yposition Zposition Xrotation Yrotation Zrotation
												End Site
												{
													OFFSET 277.486267 0.000000 -0.009857
												}
											}
										}
									}
								}
								JOINT mixamorig:LeftHandMiddle1
								{
									OFFSET 9.533394 0.000061 0.000044
									CHANNELS 6 Xposition Yposition Zposition Xrotation Yrotation Zrotation
									JOINT mixamorig:LeftHandMiddle2
									{
										OFFSET 3.699989 -0.000015 -0.000231
										CHANNELS 6 Xposition Yposition Zposition Xrotation Yrotation Zrotation
										JOINT mixamorig:LeftHandMiddle3
										{
											OFFSET 2.949997 -0.000015 -0.000059
											CHANNELS 6 Xposition Yposition Zposition Xrotation Yrotation Zrotation
											JOINT mixamorig:LeftHandMiddle4
											{
												OFFSET 2.952896 0.000031 0.000063
												CHANNELS 6 Xposition Yposition Zposition Xrotation Yrotation Zrotation
												End Site
												{
													OFFSET 295.289337 0.000000 0.022810
												}
											}
										}
									}
								}
								JOINT mixamorig:LeftHandRing1
								{
									OFFSET 9.104523 -0.042999 -1.865074
									CHANNELS 6 Xposition Yposition Zposition Xrotation Yrotation Zrotation
									JOINT mixamorig:LeftHandRing2
									{
										OFFSET 3.150009 -0.000031 0.000043
										CHANNELS 6 Xposition Yposition Zposition Xrotation Yrotation Zrotation
										JOINT mixamorig:LeftHandRing3
										{
											OFFSET 2.949982 -0.000015 0.000040
											CHANNELS 6 Xposition Yposition Zposition Xrotation Yrotation Zrotation
											JOINT mixamorig:LeftHandRing4
											{
												OFFSET 2.644348 0.000000 0.000057
												CHANNELS 6 Xposition Yposition Zposition Xrotation Yrotation Zrotation
												End Site
												{
													OFFSET 264.434631 0.000000 0.012105
												}
											}
										}
									}
								}
								JOINT mixamorig:LeftHandPinky1
								{
									OFFSET 8.077789 -0.486847 -3.806259
									CHANNELS 6 Xposition Yposition Zposition Xrotation Yrotation Zrotation
									JOINT mixamorig:LeftHandPinky2
									{
										OFFSET 3.599953 0.000031 0.014727
										CHANNELS 6 Xposition Yposition Zposition Xrotation Yrotation Zrotation
										JOINT mixamorig:LeftHandPinky3
										{
											OFFSET 2.100021 0.000015 0.007705
											CHANNELS 6 Xposition Yposition Zposition Xrotation Yrotation Zrotation
											JOINT mixamorig:LeftHandPinky4
											{
												OFFSET 2.125504 0.000031 0.007517
												CHANNELS 6 Xposition Yposition Zposition Xrotation Yrotation Zrotation
												End Site
												{
													OFFSET 212.550781 0.000000 0.625752
												}
											}
										}
									}
								}
							}
						}
					}
				}
			}
		}
	}
	JOINT mixamorig:RightUpLeg
	{
		OFFSET -8.207787 -6.751648 -1.599560
		CHANNELS 6 Xposition Yposition Zposition Xrotation Yrotation Zrotation
		JOINT mixamorig:RightLeg
		{
			OFFSET -0.000002 -44.370117 0.345942
			CHANNELS 6 Xposition Yposition Zposition Xrotation Yrotation Zrotation
			JOINT mixamorig:RightFoot
			{
				OFFSET 0.000003 -44.423679 -3.043532
				CHANNELS 6 Xposition Yposition Zposition Xrotation Yrotation Zrotation
				JOINT mixamorig:RightToeBase
				{
					OFFSET -0.000002 -8.728671 10.710558
					CHANNELS 6 Xposition Yposition Zposition Xrotation Yrotation Zrotation
					JOINT mixamorig:RightToe_End
					{
						OFFSET -0.000001 -0.000679 9.278119
						CHANNELS 6 Xposition Yposition Zposition Xrotation Yrotation Zrotation
						End Site
						{
							OFFSET 0.000000 -0.067690 927.812134
						}
					}
				}
			}
		}
	}
	JOINT mixamorig:LeftUpLeg
	{
		OFFSET 8.207793 -6.751686 -1.599556
		CHANNELS 6 Xposition Yposition Zposition Xrotation Yrotation Zrotation
		JOINT mixamorig:LeftLeg
		{
			OFFSET -0.000004 -44.370014 0.346954
			CHANNELS 6 Xposition Yposition Zposition Xrotation Yrotation Zrotation
			JOINT mixamorig:LeftFoot
			{
				OFFSET -0.000001 -44.423672 -3.044401
				CHANNELS 6 Xposition Yposition Zposition Xrotation Yrotation Zrotation
				JOINT mixamorig:LeftToeBase
				{
					OFFSET -0.000002 -8.728669 10.710558
					CHANNELS 6 Xposition Yposition Zposition Xrotation Yrotation Zrotation
					JOINT mixamorig:LeftToe_End
					{
						OFFSET -0.000003 -0.000679 9.278133
						CHANNELS 6 Xposition Yposition Zposition Xrotation Yrotation Zrotation
						End Site
						{
							OFFSET 0.000000 -0.068021 927.813477
						}
					}
				}
			}
		}
	}
}
MOTION
Frames: 3
Frame Time: 0.033333
0.000006 104.270477 1.554256 0.000010 0.000003 -0.000113 -0.000005 10.181587 0.131522 0.000001 -0.000003 0.000084 -0.000000 9.893967 -1.470711 0.000001 0.000000 -0.000000 -0.000000 9.220802 -1.370642 0.000000 -0.000000 -0.000000 0.000001 16.740433 -2.049030 0.000000 -0.000000 -0.000000 0.000000 9.617859 1.685014 0.000000 0.000000 0.000000 0.000002 22.037384 7.501101 0.000000 -0.000000 0.000000 -4.569968 11.014880 -2.160881 0.000008 0.000001 -0.000038 -10.592882 -0.524710 -2.231962 75.831335 16.604743 -12.969377 -27.841522 0.000015 0.000562 -51.936885 117.191730 77.164848 -28.328833 0.000021 0.000025 -0.000319 -0.000043 0.000006 -2.464414 -1.573836 2.682334 -42.131814 -155.444628 2.368892 -3.215260 -1.872532 1.924635 151.257121 34.167236 25.070553 -2.654955 -1.527892 1.513076 148.509268 26.247500 -40.559367 -2.018823 -1.151988 1.108056 -0.000004 -0.000001 0.000004 -9.108374 -0.517568 2.260103 93.926603 17.340472 -18.601160 -3.700087 0.000302 0.001482 90.486688 14.291843 -14.388485 -2.850092 0.000369 -0.000292 88.732135 11.197877 -10.953388 -2.772179 -0.000014 -0.000017 0.000001 -0.000001 0.000000 -9.532583 0.000268 0.000229 91.169413 15.261967 -15.716967 -3.700068 0.000336 0.003964 91.013930 10.924375 -11.023188 -2.950052 0.000346 -0.001815 93.061068 10.535444 -11.102986 -2.946621 0.000019 -0.000162 0.000001 -0.000001 0.000001 -9.103706 -0.042751 -1.864876 91.707359 16.175418 -16.612444 -3.379321 0.000324 -0.000824 91.988516 7.849872 -8.143781 -2.889760 0.000358 0.000649 98.393718 5.690891 -6.642217 -2.638817 -0.000014 0.000941 -0.000001 -0.000001 0.000003 -8.076752 -0.486382 -3.806027 89.468723 16.728730 -16.427754 -3.600031 0.000300 -0.003510 92.078047 6.323790 -6.199286 -2.100003 0.000320 -0.005477 95.462535 3.089959 -3.167056 -2.115773 -0.000041 -0.003676 0.000001 0.000001 -0.000001 4.570446 11.014691 -2.160851 -0.000018 0.000010 -0.000021 10.592491 -0.524542 -2.232381 54.705454 -58.318464 32.199434 27.841728 -0.000075 -0.000075 235.447003 -69.991803 253.787973 28.328831 -0.000012 0.000036 0.000023 -0.000088 -0.000000 2.466132 -1.576180 2.681880 54.046375 122.562349 -108.202231 3.217826 -1.871975 1.916542 272.268307 32.808226 34.457956 2.656080 -1.528725 1.514659 274.835939 18.100286 29.037914 2.020892 -1.154066 1.115150 0.000000 0.000001 -0.000001 9.109271 -0.517859 2.260119 268.895040 -16.967713 -17.286428 3.699941 0.000153 -0.000068 267.462230 -15.938612 -16.660889 2.849970 0.000187 0.000593 86.664370 -167.178729 166.417559 2.774877 -0.000030 -0.000033 -0.000003 -0.000001 -0.000002 9.533162 0.000116 0.000173 188.864949 -23.982947 220.079610 3.700097 0.000270 -0.000293 132.381251 -13.500350 30.024989 2.950014 0.000292 -0.000197 109.502085 0.509092 -0.716925 2.952857 -0.000018 0.000044 -0.000001 -0.000001 0.000001 9.104448 -0.043044 -1.864998 -2.169348 -159.059028 -11.690091 3.150009 0.000309 -0.000107 111.582765 1.087661 -1.597674 2.949915 0.000263 -0.000159 91.649514 14.977937 -15.409226 2.644317 0.000033 0.000058 -0.000002 -0.000000 0.000000 8.077616 -0.486864 -3.806160 181.658826 -16.819191 193.940981 3.599906 0.000427 0.014650 144.053785 4.286755 -12.028708 2.099865 0.000372 0.007535 301.208638 161.900523 148.831311 2.125493 -0.000030 0.007499 0.000005 -0.000001 0.000001 -8.207786 -6.751667 -1.599560 -0.077001 -0.000003 0.000080 -0.000002 -44.370110 0.345938 0.153719 -0.000000 -0.000000 0.000000 -44.423679 -3.043532 -0.076700 0.000000 -0.000002 -0.000006 -8.728667 10.710559 -0.000009 -0.000000 -0.000000 -0.000001 -0.000679 9.278123 0.000000 -0.000000 -0.000000 8.207792 -6.751710 -1.599556 -0.074518 -0.000003 0.000081 -0.000002 -44.370014 0.346960 0.148822 0.000002 0.000000 -0.000001 -44.423664 -3.044403 -0.074314 0.000000 -0.000002 -0.000004 -8.728671 10.710558 0.000007 -0.000000 -0.000000 0.000000 -0.000680 9.278137 -0.000000 0.000000 -0.000001 
0.000006 104.270477 1.554256 0.000010 0.000003 -0.000113 -0.000005 10.181587 0.131522 0.000001 -0.000003 0.000084 -0.000000 9.893967 -1.470711 0.000001 0.000000 -0.000000 -0.000000 9.220802 -1.370642 0.000000 -0.000000 -0.000000 0.000001 16.740433 -2.049030 0.000000 -0.000000 -0.000000 0.000000 9.617859 1.685014 0.000000 0.000000 0.000000 0.000002 22.037384 7.501101 0.000000 -0.000000 0.000000 -4.569968 11.014880 -2.160881 0.000008 0.000001 -0.000038 -10.592881 -0.524711 -2.231977 75.676071 16.387553 -12.763379 -27.841513 0.000015 0.000552 -52.249253 118.787768 79.321917 -28.328808 0.000019 0.000024 -0.000322 -0.000043 0.000008 -2.464415 -1.573849 2.682342 -41.661033 -155.016689 3.284128 -3.215261 -1.872505 1.924615 149.909661 34.136807 27.730462 -2.654974 -1.527887 1.513081 148.416090 26.588128 -37.620091 -2.018816 -1.151994 1.108078 0.000002 -0.000001 0.000010 -9.108380 -0.517555 2.260103 94.362130 16.500788 -17.837625 -3.700054 0.000319 0.001483 90.456375 13.281427 -13.362974 -2.850086 0.000378 -0.000281 88.633514 10.242436 -10.001365 -2.772163 -0.000020 -0.000018 -0.000005 -0.000000 -0.000000 -9.532588 0.000273 0.000232 92.021240 14.247823 -14.898700 -3.700057 0.000339 0.003960 90.530148 10.040819 -10.040437 -2.950047 0.000342 -0.001831 92.309686 9.881437 -10.278647 -2.946622 0.000017 -0.000151 0.000004 0.000001 -0.000001 -9.103704 -0.042758 -1.864873 92.641325 15.312470 -15.980097 -3.379298 0.000312 -0.000815 91.610595 7.299039 -7.523871 -2.889745 0.000365 0.000634 97.813589 5.320713 -6.150365 -2.638805 -0.000011 0.000943 -0.000001 -0.000001 0.000004 -8.076740 -0.486397 -3.806014 89.728885 15.701977 -15.480835 -3.600023 0.000299 -0.003517 91.581615 5.541738 -5.345984 -2.099996 0.000336 -0.005469 95.022090 2.630383 -2.642693 -2.115790 -0.000048 -0.003680 -0.000001 0.000001 -0.000007 4.570446 11.014691 -2.160851 -0.000018 0.000010 -0.000021 10.592489 -0.524538 -2.232383 54.133101 -58.181314 31.741422 27.841728 -0.000067 -0.000081 236.322797 -69.149306 255.675728 28.328831 -0.000012 0.000037 0.000020 -0.000086 -0.000000 2.466137 -1.576167 2.681885 42.864696 121.854154 -97.667607 3.217840 -1.871971 1.916571 272.426794 30.114748 33.518088 2.656088 -1.528715 1.514643 281.011796 12.331364 24.776170 2.020888 -1.154082 1.115140 -0.000000 0.000006 0.000001 9.109261 -0.517848 2.260118 267.253144 -17.218886 -18.044334 3.699953 0.000150 -0.000088 269.250784 -14.979515 -15.184515 2.849965 0.000192 0.000596 90.401256 -166.438487 166.533044 2.774886 -0.000050 -0.000047 -0.000001 -0.000002 0.000003 9.533146 0.000110 0.000165 187.824861 -20.951289 220.574990 3.700080 0.000283 -0.000289 135.669933 -9.314756 22.610622 2.950006 0.000268 -0.000219 109.524283 1.170272 -1.653172 2.952871 -0.000028 0.000060 0.000001 0.000001 0.000001 9.104412 -0.043032 -1.864993 -0.422505 -161.547047 -2.591006 3.149970 0.000373 -0.000082 126.340878 3.205567 -6.330206 2.949912 0.000306 -0.000168 99.202214 15.064617 -17.661824 2.644320 0.000047 0.000046 0.000001 -0.000000 0.000002 8.077660 -0.486884 -3.806174 179.239996 -15.737447 177.950238 3.599921 0.000432 0.014636 142.245069 3.001065 -7.626419 2.099883 0.000328 0.007524 295.302846 162.935023 153.740591 2.125502 -0.000000 0.007534 0.000001 0.000002 0.000001 -8.207786 -6.751667 -1.599560 -0.077001 -0.000003 0.000080 -0.000002 -44.370110 0.345938 0.153719 -0.000000 -0.000000 0.000000 -44.423679 -3.043532 -0.076700 0.000000 -0.000002 -0.000006 -8.728667 10.710559 -0.000009 -0.000000 -0.000000 -0.000001 -0.000679 9.278123 0.000000 -0.000000 -0.000000 8.207792 -6.751710 -1.599556 -0.074518 -0.000003 0.000081 -0.000002 -44.370014 0.346960 0.148822 0.000002 0.000000 -0.000001 -44.423664 -3.044403 -0.074314 0.000000 -0.000002 -0.000004 -8.728671 10.710558 0.000007 -0.000000 -0.000000 0.000000 -0.000680 9.278137 -0.000000 0.000000 -0.000001 
0.000006 104.270477 1.554256 0.000010 0.000003 -0.000113 -0.000005 10.181587 0.131522 0.000001 -0.000003 0.000084 -0.000000 9.893967 -1.470711 0.000001 0.000000 -0.000000 -0.000000 9.220802 -1.370642 0.000000 -0.000000 -0.000000 0.000001 16.740433 -2.049030 0.000000 -0.000000 -0.000000 0.000000 9.617859 1.685014 0.000000 0.000000 0.000000 0.000002 22.037384 7.501101 0.000000 -0.000000 0.000000 -4.569968 11.014880 -2.160881 0.000008 0.000001 -0.000038 -10.592878 -0.524723 -2.231954 75.699396 20.963138 -16.361918 -27.841524 0.000008 0.000531 -52.061396 118.595006 78.872552 -28.328825 0.000022 0.000024 -0.000321 -0.000046 0.000005 -2.464416 -1.573843 2.682356 -40.932125 -154.694359 4.773953 -3.215261 -1.872517 1.924630 150.839810 34.148535 25.790340 -2.654959 -1.527888 1.513074 148.525701 26.490885 -38.307290 -2.018831 -1.151998 1.108056 0.000001 -0.000002 0.000004 -9.108400 -0.517565 2.260113 94.413124 16.707474 -18.075879 -3.700076 0.000316 0.001484 90.806313 13.340707 -13.504171 -2.850084 0.000366 -0.000298 89.082940 10.288779 -10.125354 -2.772166 -0.000016 -0.000020 0.000000 0.000001 -0.000002 -9.532603 0.000268 0.000236 92.007539 14.624933 -15.285844 -3.700045 0.000335 0.003960 90.825246 10.152826 -10.205481 -2.950051 0.000346 -0.001824 92.805749 10.104496 -10.601691 -2.946637 -0.000014 -0.000152 0.000000 -0.000000 -0.000001 -9.103717 -0.042748 -1.864861 92.734797 15.674275 -16.384524 -3.379343 0.000323 -0.000826 91.774267 7.528675 -7.782189 -2.889749 0.000349 0.000653 97.827365 5.585358 -6.455348 -2.638809 -0.000020 0.000939 0.000002 -0.000000 0.000000 -8.076759 -0.486370 -3.806010 90.040833 15.838275 -15.700513 -3.600034 0.000302 -0.003515 91.449102 5.902194 -5.701482 -2.100004 0.000337 -0.005490 94.532933 3.043158 -3.065438 -2.115772 -0.000055 -0.003674 0.000000 -0.000001 -0.000002 4.570446 11.014691 -2.160851 -0.000018 0.000010 -0.000021 10.592499 -0.524546 -2.232388 53.929705 -61.130733 33.447027 27.841719 -0.000067 -0.000071 237.504365 -69.443722 256.739626 28.328831 -0.000042 0.000030 0.000022 -0.000088 0.000000 2.466124 -1.576183 2.681859 36.108659 121.150672 -90.779225 3.217831 -1.871972 1.916543 270.940053 32.044037 34.959961 2.656091 -1.528725 1.514634 277.304041 15.275479 27.103835 2.020883 -1.154078 1.115154 0.000001 0.000001 0.000002 9.109251 -0.517835 2.260115 261.072943 -18.551514 -21.616944 3.699930 0.000178 -0.000057 266.493627 -17.595771 -18.697636 2.849955 0.000186 0.000603 87.668490 -163.597142 162.926308 2.774891 -0.000059 -0.000026 0.000001 -0.000003 0.000002 9.533211 0.000048 0.000133 182.281862 -18.260453 194.089347 3.700074 0.000282 -0.000315 132.267843 -10.983713 24.514785 2.950030 0.000220 -0.000220 98.182631 -3.446258 3.979856 2.952869 -0.000029 0.000045 -0.000002 0.000000 -0.000004 9.104532 -0.043043 -1.865016 -5.010991 -163.717981 -34.003219 3.149976 0.000340 -0.000104 118.106798 4.892772 -8.149052 2.949923 0.000219 -0.000156 79.634207 16.529420 -13.808477 2.644326 0.000027 0.000044 0.000000 0.000000 -0.000000 8.077765 -0.486888 -3.806183 176.189238 -13.881916 153.881908 3.599895 0.000403 0.014616 136.854328 6.186410 -14.676019 2.099875 0.000318 0.007517 287.761143 159.009686 151.814014 2.125517 -0.000001 0.007512 -0.000000 0.000000 0.000001 -8.207786 -6.751667 -1.599560 -0.077001 -0.000003 0.000080 -0.000002 -44.370110 0.345938 0.153719 -0.000000 -0.000000 0.000000 -44.423679 -3.043532 -0.076700 0.000000 -0.000002 -0.000006 -8.728667 10.710559 -0.000009 -0.000000 -0.000000 -0.000001 -0.000679 9.278123 0.000000 -0.000000 -0.000000 8.207792 -6.751710 -1.599556 -0.074518 -0.000003 0.000081 -0.000002 -44.370014 0.346960 0.148822 0.000002 0.000000 -0.000001 -44.423664 -3.044403 -0.074314 0.000000 -0.000002 -0.000004 -8.728671 10.710558 0.000007 -0.000000 -0.000000 0.000000 -0.000680 9.278137 -0.000000 0.000000 -0.000001 
